# xmcd
#
# Track frame offsets:
#	150
#	17007
#	39093
#	53062
#	71244
#	90546
#	109581
#	125072
#	143773
#	162009
#
# Disc length: 2415 seconds
#
# Revision: 0
# Processed by: cddbd v1.5.1PL2 Copyright (c) Steve Scherf et al.
# Submitted via: dBpowerAMP V4.0
#
DISCID=7c096d0a
DTITLE=rob - tones
DYEAR=2005
DGENRE=Classic Rock
TTITLE0=vvb
TTITLE1=sdf
TTITLE2=bb
TTITLE3=bbbn
TTITLE4=gr
TTITLE5=ref
TTITLE6=gg
TTITLE7=yh
TTITLE8=hi
TTITLE9=rock star
EXTD=rob
EXTT0=
EXTT1=
EXTT2=
EXTT3=
EXTT4=
EXTT5=
EXTT6=
EXTT7=
EXTT8=
EXTT9=
PLAYORDER=
